<?xml version="1.0" encoding="utf-8"?>
<!DOCTYPE svg PUBLIC "-//W3C//DTD SVG 1.0//EN" "http://www.w3.org/TR/2001/REC-SVG-20010904/DTD/svg10.dtd">
<svg version="1.0" xmlns="http://www.w3.org/2000/svg" width="4267px" height="4267px" viewBox="0 0 4267 4267" preserveAspectRatio="xMidYMid meet">
 <g fill="#21e6c1">
  <path d="M1015.36 2966.70 l416.70 -416.70 -35.79 -1.20 c-55.19 -1.80 -110.77 -10 -169.36 -24.59 -244.74 -61.39 -452.89 -237.14 -555.87 -469.49 -38.39 -86.38 -61.39 -176.56 -69.38 -272.74 -3.40 -40.99 -1.20 -132.57 4 -171.36 29.79 -220.75 137.37 -410.10 312.33 -550.07 21.99 -17.60 78.78 -55.79 105.18 -70.58 84.18 -47.59 184.56 -82.58 278.53 -97.18 64.98 -10 41.79 -9.60 514.88 -10.40 243.14 -0.40 444.90 -0.20 448.49 0.40 4.20 0.80 6.40 2.40 6.40 4.60 0 1.80 -184.16 187.56 -409.30 412.70 l-409.10 409.10 10.80 1.20 c6 0.60 20.80 1.60 33.19 2.20 53.99 2.60 125.37 15.80 185.56 33.99 200.15 60.79 373.71 198.95 478.29 380.91 56.59 98.18 88.98 194.75 104.98 312.53 4 28.59 4.60 41.19 4.60 108.37 0 62.19 -0.60 80.98 -3.60 103.98 -13.20 100.98 -37.59 183.76 -79.38 268.54 -43.39 88.18 -93.38 157.76 -163.16 226.75 -55.59 54.79 -105.58 92.98 -171.16 130.77 -80.98 46.79 -169.56 78.98 -269.74 98.18 l-28.79 5.60 -477.89 0.60 -477.89 0.40 416.50 -416.50z"/>
 </g>
 <g fill="#278ea5">
  <path d="M1463.66 3382.61 c0.60 -0.40 11.80 -1.40 24.99 -2 136.97 -6.80 286.73 -57.59 406.50 -137.77 104.78 -70.18 196.75 -168.16 259.34 -276.54 14.80 -25.39 40.39 -77.38 49.99 -101.38 9 -22.19 25.79 -70.78 30.19 -86.98 12.20 -44.99 20.20 -85.38 26.19 -131.57 2.80 -22.59 3.60 -41.59 3.60 -97.98 -0.20 -76.98 -2.20 -100.78 -15 -165.76 -28.99 -147.77 -105.78 -295.13 -210.75 -405.11 -137.37 -143.37 -306.53 -229.35 -502.48 -254.94 -28.79 -3.60 -91.18 -7.40 -97.78 -5.80 -2.60 0.60 -4.80 1 -4.80 0.40 0 -1.80 786.02 -786.42 788.42 -787.02 4 -0.80 64.98 19.80 102.98 34.79 171.96 68.18 329.92 176.36 455.09 311.73 126.57 137.17 223.35 303.53 277.33 477.29 7.40 23.59 8.20 27.99 6 31.99 -2 4 -1.20 9.40 5.60 35.59 14.60 56.99 26.19 123.17 33.39 188.96 4.20 40.59 6 159.56 3 204.15 -5.80 82.18 -18.80 162.76 -38.39 236.54 -4.80 18.60 -5.60 23.79 -3.80 27.19 2.60 5 1.40 10.40 -15.20 60.39 -43.79 133.17 -118.37 269.14 -210.35 383.51 -62.59 77.78 -147.17 159.16 -228.95 220.35 -161.76 120.77 -364.31 204.75 -560.27 232.35 -50.19 7 -48.99 7 -48.99 3.40 0 -1.80 -0.60 -3.20 -1.40 -3.20 -1 0.20 -15 1.60 -31.59 3.40 -24.99 2.60 -70.18 3.20 -266.94 4 -130.17 0.40 -236.34 0.40 -235.94 0z"/>
  <path d="M1384.28 2548 c3 -0.40 7.40 -0.40 10 0 2.40 0.40 0 0.80 -5.60 0.80 -5.40 0 -7.60 -0.40 -4.40 -0.80z"/>
  <path d="M600.46 1669.61 c0 -5 0.40 -7 0.80 -4.40 0.40 2.40 0.40 6.40 0 9 -0.40 2.40 -0.80 0.40 -0.80 -4.60z"/>
  <path d="M2263.47 886.79 c2.20 -2.60 -44.99 -3 -423.10 -3.40 l-425.70 -0.60 421.90 -0.60 c232.15 -0.20 424.90 0 428.50 0.60 7.80 1.40 8.80 7 1.20 7 -4.40 0 -5 -0.40 -2.80 -3z"/>
 </g>
 <g fill="#1f4287">
  <path d="M1999.53 3379.21 c0 -4.60 -1 -4.40 40.79 -10 195.15 -26.59 399.91 -111.17 562.47 -232.55 81.78 -61.19 166.36 -142.57 228.95 -220.35 103.18 -128.17 177.76 -270.94 225.75 -431.90 l3 -10 302.33 453.29 c166.36 249.54 302.33 453.89 302.33 454.49 0 0.60 -374.71 1 -832.80 1 -828.81 0 -832.80 0 -832.80 -4z"/>
  <path d="M3051.68 1760.99 c-4.80 -15.60 -14.60 -44.19 -21.79 -63.39 -110.17 -294.93 -327.72 -538.47 -607.46 -679.84 -61.59 -31.19 -138.57 -62.59 -191.56 -77.98 l-15.60 -4.60 25.59 -25.79 25.59 -25.59 699.24 0 699.44 0 -301.93 452.89 c-166.16 249.14 -302.13 452.89 -302.53 452.89 -0.20 0 -4.20 -12.80 -9 -28.59z"/>
  <path d="M1435.66 1714.80 c0 -0.40 1.40 -1.80 3 -3.20 2.40 -2 3 -2 3 0.80 0 1.80 -1.40 3.20 -3 3.20 -1.60 0 -3 -0.40 -3 -0.80z"/>
 </g>
</svg>